# xmcd
#
# Track frame offsets: 
#        150
#        14554
#        30774
#        44245
#        53038
#        72994
#        81366
#        93302
#        101402
#        116669
#        126106
#
# Disc length: 1926 seconds
#
# Revision: 0
# Processed by: cddbd v1.5.2PL0 Copyright (c) Steve Scherf et al.
# Submitted via: ExactAudioCopy v0.95b3
#
DISCID=8f07840b
DTITLE=The Legendary Hucklebucks - Rattle All Night Long and Shake You
DTITLE=!
DYEAR=2005
DGENRE=Rock and Roll
TTITLE0=21 Days In Jail
TTITLE1=Hillbilly Throwdown
TTITLE2=Honky-Tonk Angel
TTITLE3=Chop Top Bop
TTITLE4=Doghouse Blues
TTITLE5=Railroad Bill
TTITLE6=Exodus
TTITLE7=Blazin' Wheels
TTITLE8=Sin City 
TTITLE9=Unlucky With The Ladies
TTITLE10=Devil Baby Blue
EXTD=
EXTT0=
EXTT1=
EXTT2=
EXTT3=
EXTT4=
EXTT5=
EXTT6=
EXTT7=
EXTT8=
EXTT9=
EXTT10=
PLAYORDER=
